HIERARCHY
ROOT Hips
{
	OFFSET 0.000000 0.000000 0.000000
	CHANNELS 6 Xposition Yposition Zposition Zrotation Yrotation Xrotation 
	JOINT LHipJoint
	{
		OFFSET 0.000000 0.000000 0.000000
		CHANNELS 3 Zrotation Yrotation Xrotation
		JOINT LeftUpLeg
		{
			OFFSET 1.363060 -1.794630 0.839290
			CHANNELS 3 Zrotation Yrotation Xrotation
			JOINT LeftLeg
			{
				OFFSET 2.448110 -6.726130 0.000000
				CHANNELS 3 Zrotation Yrotation Xrotation
				JOINT LeftFoot
				{
					OFFSET 2.562200 -7.039590 0.000000
					CHANNELS 3 Zrotation Yrotation Xrotation
					JOINT LeftToeBase
					{
						OFFSET 0.157640 -0.433110 2.322550
						CHANNELS 3 Zrotation Yrotation Xrotation
						End Site
						{
							OFFSET 0.000000 0.000000 0.000000
						}
					}
				}
			}
		}
	}
	JOINT RHipJoint
	{
		OFFSET 0.000000 0.000000 0.000000
		CHANNELS 3 Zrotation Yrotation Xrotation
		JOINT RightUpLeg
		{
			OFFSET -1.305520 -1.794630 0.839290
			CHANNELS 3 Zrotation Yrotation Xrotation
			JOINT RightLeg
			{
				OFFSET -2.542530 -6.985550 0.000000
				CHANNELS 3 Zrotation Yrotation Xrotation
				JOINT RightFoot
				{
					OFFSET -2.568260 -7.056230 0.000000
					CHANNELS 3 Zrotation Yrotation Xrotation
					JOINT RightToeBase
					{
						OFFSET -0.164730 -0.452590 2.363150
						CHANNELS 3 Zrotation Yrotation Xrotation
						End Site
						{
							OFFSET 0.000000 0.000000 0.000000
						}
					}
				}
			}
		}
	}
	JOINT LowerBack
	{
		OFFSET 0.000000 0.000000 0.000000
		CHANNELS 3 Zrotation Yrotation Xrotation
		JOINT Spine
		{
			OFFSET 0.028270 2.035590 -0.193380
			CHANNELS 3 Zrotation Yrotation Xrotation
			JOINT Spine1
			{
				OFFSET 0.056720 2.048850 -0.042750
				CHANNELS 3 Zrotation Yrotation Xrotation
				JOINT Neck
				{
					OFFSET 0.000000 0.000000 0.000000
					CHANNELS 3 Zrotation Yrotation Xrotation
					JOINT Neck1
					{
						OFFSET -0.054170 1.746240 0.172020
						CHANNELS 3 Zrotation Yrotation Xrotation
						JOINT Head
						{
							OFFSET 0.104070 1.761360 -0.123970
							CHANNELS 3 Zrotation Yrotation Xrotation
							End Site
							{
								OFFSET 0.000000 0.000000 0.000000
							}
						}
					}
				}
				JOINT LeftShoulder
				{
					OFFSET 0.000000 0.000000 0.000000
					CHANNELS 3 Zrotation Yrotation Xrotation
					JOINT LeftArm
					{
						OFFSET 3.362410 1.200890 -0.311210
						CHANNELS 3 Zrotation Yrotation Xrotation
						JOINT LeftForeArm
						{
							OFFSET 4.983000 -0.000000 -0.000000
							CHANNELS 3 Zrotation Yrotation Xrotation
							JOINT LeftHand
							{
								OFFSET 3.483560 -0.000000 -0.000000
								CHANNELS 3 Zrotation Yrotation Xrotation
								JOINT LeftFingerBase
								{
									OFFSET 0.000000 0.000000 0.000000
									CHANNELS 3 Zrotation Yrotation Xrotation
									JOINT LeftHandIndex1
									{
										OFFSET 0.715260 -0.000000 -0.000000
										CHANNELS 3 Zrotation Yrotation Xrotation
										End Site
										{
											OFFSET 0.000000 0.000000 0.000000
										}
									}
								}
								JOINT LThumb
								{
									OFFSET 0.000000 0.000000 0.000000
									CHANNELS 3 Zrotation Yrotation Xrotation
									End Site
									{
										OFFSET 0.000000 0.000000 0.000000
									}
								}
							}
						}
					}
				}
				JOINT RightShoulder
				{
					OFFSET 0.000000 0.000000 0.000000
					CHANNELS 3 Zrotation Yrotation Xrotation
					JOINT RightArm
					{
						OFFSET -3.136600 1.374050 -0.404650
						CHANNELS 3 Zrotation Yrotation Xrotation
						JOINT RightForeArm
						{
							OFFSET -5.241900 -0.000000 -0.000000
							CHANNELS 3 Zrotation Yrotation Xrotation
							JOINT RightHand
							{
								OFFSET -3.444170 -0.000000 -0.000000
								CHANNELS 3 Zrotation Yrotation Xrotation
								JOINT RightFingerBase
								{
									OFFSET 0.000000 0.000000 0.000000
									CHANNELS 3 Zrotation Yrotation Xrotation
									JOINT RightHandIndex1
									{
										OFFSET -0.622530 -0.000000 -0.000000
										CHANNELS 3 Zrotation Yrotation Xrotation
										End Site
										{
											OFFSET 0.000000 0.000000 0.000000
										}
									}
								}
								JOINT RThumb
								{
									OFFSET 0.000000 0.000000 0.000000
									CHANNELS 3 Zrotation Yrotation Xrotation
									End Site
									{
										OFFSET 0.000000 0.000000 0.000000
									}
								}
							}
						}
					}
				}
			}
		}
	}
}
MOTION
Frames: 4
Frame Time: 0.008333
2.667383 16.949425 0.163769 3.455557 80.151637 15.329985 -10.563268 0.291930 3.131711 -5.444788 -6.585328 -37.661217 -0.078663 2.087379 49.880412 3.467842 18.455247 -14.131434 -1.766801 0.000001 -2.555100 7.771710 -1.826536 1.895918 16.274764 4.095001 -11.017644 2.823627 0.158259 19.262940 -2.693876 -5.821002 -23.001800 2.116701 0.000000 -5.178400 0.103696 -0.053184 -5.830001 -0.833972 -0.277241 -4.596363 -6.158317 -0.420125 -1.997622 7.259528 -1.760894 -5.625866 -3.977681 -0.332127 0.555887 0.000000 0.000000 0.000000 -3.946484 3.481784 4.001393 -63.277613 11.871167 -13.980322 -3.415290 -6.009491 -0.033865 19.210363 10.066011 1.689108 0.003005 0.105046 0.000000 0.000000 0.000000 0.000000 0.000000 0.000000 0.000000 13.701685 4.924707 -0.327213 79.203334 30.212932 34.243817 1.217453 46.304790 -0.016343 -5.515471 10.325929 -0.522646 0.082862 -0.358246 -0.000000 0.000000 0.000000 0.000000 0.000000 0.000000 0.000000 
2.886064 17.018109 0.231319 8.006408 79.610728 19.836573 -10.240101 0.141742 3.220001 -6.247300 -7.005087 -37.059903 -0.288979 1.667573 44.866520 3.468329 18.247182 -13.026347 -1.348900 0.000000 -3.416300 8.023322 -1.904733 1.902636 15.035994 4.004268 -8.732831 2.743726 0.376852 16.104062 -2.498405 -5.642627 -21.395140 1.803100 0.000000 -6.312000 -1.348884 0.142176 -5.943436 -1.110962 0.049916 -4.628656 -6.062447 -0.093578 -2.041497 7.024499 -1.894188 -5.628716 -3.819781 -0.321557 0.554998 0.000000 0.000000 0.000000 -3.979672 4.163861 4.047193 -62.032594 13.997969 -12.821986 -3.791801 -5.605766 -0.034963 16.861809 11.336484 1.672690 -0.028737 0.101688 0.000000 0.000000 0.000000 0.000000 0.000000 0.000000 0.000000 12.856078 5.173971 -0.475059 79.200510 32.801807 37.066746 1.126773 49.701577 -0.018266 -5.521888 10.220202 -0.519679 0.086574 -0.384804 -0.000000 0.000000 0.000000 0.000000 0.000000 0.000000 0.000000 
3.105768 17.079421 0.296373 11.299568 78.990417 23.032539 -9.895276 0.055507 3.274743 -7.022132 -7.137914 -36.286981 -0.515388 1.245556 39.605121 3.397627 17.782517 -11.648346 -0.835100 -0.000000 -4.689400 8.344878 -1.995829 1.906586 13.875824 3.820040 -6.463342 2.648793 0.566215 13.051482 -2.282946 -5.377937 -19.716878 1.481700 0.000000 -7.286700 -2.657160 0.354511 -6.019466 -1.359356 0.382853 -4.649172 -5.953857 0.241885 -2.056158 6.767180 -1.996615 -5.640069 -3.652966 -0.309880 0.550366 0.000000 0.000000 0.000000 -3.984575 4.962721 4.066720 -60.682711 15.703312 -11.410196 -4.181680 -4.779220 -0.035577 14.066910 11.953005 1.473957 -0.061580 0.094052 0.000000 0.000000 0.000000 0.000000 0.000000 0.000000 0.000000 11.941427 5.417209 -0.600534 78.987237 35.512454 39.444039 1.060149 52.988669 -0.019273 -5.343948 9.999082 -0.493745 0.087848 -0.407895 -0.000000 0.000000 0.000000 0.000000 0.000000 0.000000 0.000000 
3.326901 17.132131 0.357229 13.483698 78.291521 25.074528 -9.570531 0.027053 3.307119 -7.747303 -6.967178 -35.403246 -0.768542 0.830788 34.185595 3.253952 17.093657 -10.026444 -0.260800 -0.000000 -6.335200 8.690780 -2.102356 1.898873 12.815318 3.515624 -4.243096 2.551414 0.727287 10.164936 -2.046707 -4.982366 -18.009276 1.163600 -0.000000 -8.150300 -3.805613 0.592745 -6.067242 -1.574812 0.728442 -4.659613 -5.821837 0.592402 -2.037590 6.468616 -2.052184 -5.666057 -3.477323 -0.297056 0.540979 0.000000 0.000000 0.000000 -3.986174 5.911437 4.058007 -59.261536 17.030829 -9.719240 -4.569639 -3.688988 -0.035226 10.985813 11.938016 1.153012 -0.093222 0.082556 0.000000 0.000000 0.000000 0.000000 0.000000 0.000000 0.000000 10.932400 5.675506 -0.705107 78.517282 38.335211 41.385339 1.010026 56.166345 -0.019336 -5.014466 9.709187 -0.451341 0.086465 -0.427311 -0.000000 0.000000 0.000000 0.000000 0.000000 0.000000 0.000000 
